<svg width="24" height="24" viewBox="0 0 24 24" fill="none" xmlns="http://www.w3.org/2000/svg">
<rect width="23.7315" height="23.0171" rx="11.5085" fill="#383838"/>
<path d="M11.8658 21.0171C7.11999 21.0171 2 18.0404 2 11.5085C2 4.97674 7.11999 2 11.8658 2C14.5023 2 16.9347 2.86751 18.7378 4.44943C20.6939 6.18444 21.7315 8.63387 21.7315 11.5085C21.7315 14.3832 20.6939 16.8156 18.7378 18.5507C16.9347 20.1326 14.4853 21.0171 11.8658 21.0171Z" fill="url(#paint0_radial_80_6943)"/>
<path d="M20.0117 5.85614C20.9183 7.31899 21.3912 9.06081 21.3912 10.9982C21.3912 13.8729 20.3536 16.3053 18.3975 18.0403C16.5944 19.6223 14.145 20.5068 11.5255 20.5068C8.45347 20.5068 5.23179 19.2566 3.33008 16.6047C5.16035 19.6087 8.60315 21.0171 11.8657 21.0171C14.4852 21.0171 16.9346 20.1326 18.7377 18.5506C20.6938 16.8156 21.7314 14.3832 21.7314 11.5085C21.7314 9.34147 21.1412 7.41595 20.0117 5.85614Z" fill="#EB8F00"/>
<path d="M13.8051 17.1388H10.063C9.68705 17.1388 9.38257 16.8344 9.38257 16.4584C9.38257 16.0825 9.68705 15.778 10.063 15.778H13.8051C14.1811 15.778 14.4855 16.0825 14.4855 16.4584C14.4855 16.8344 14.1811 17.1388 13.8051 17.1388Z" fill="#422B0D"/>
<path d="M15.251 8.63388C15.8804 8.63388 16.4417 9.36531 16.4417 10.59C16.4417 11.8147 15.8804 12.5462 15.251 12.5462C14.6216 12.5462 14.0603 11.8147 14.0603 10.59C14.0603 9.36531 14.6216 8.65089 15.251 8.63388Z" fill="#422B0D"/>
<path d="M5.65716 8.56583C5.7252 8.42975 5.77623 8.32769 5.84427 8.20862C5.91911 8.10316 5.99736 8.0011 6.08241 7.90244C6.27632 7.69662 6.50766 7.52992 6.76281 7.40915C7.03326 7.28328 7.33094 7.22374 7.63031 7.23905C7.91268 7.25266 8.19164 7.3224 8.44679 7.44317L8.61689 7.52822C8.66792 7.54523 8.70194 7.57925 8.75297 7.59626C8.83802 7.63028 8.94008 7.68131 9.02513 7.71533C9.20203 7.78507 9.38403 7.8412 9.56944 7.88543C9.65789 7.90584 9.74975 7.91775 9.8416 7.91945H10.0627C10.1342 7.90924 10.2039 7.88713 10.2668 7.85141C10.3417 7.81569 10.4097 7.76976 10.471 7.71533L10.505 7.68131C10.6751 7.56054 10.9098 7.59796 11.0323 7.76636C11.1412 7.91775 11.1276 8.12527 10.9983 8.25965C10.8996 8.36001 10.7908 8.45186 10.6751 8.53181C10.5492 8.61515 10.4114 8.67809 10.2668 8.71892C10.1988 8.73592 10.0968 8.75293 10.0287 8.76994C9.96407 8.79716 9.89433 8.80907 9.82459 8.80396C9.69361 8.80737 9.56264 8.80226 9.43336 8.78695C9.18332 8.75804 8.93837 8.70191 8.70194 8.61686C8.58457 8.58114 8.4706 8.53691 8.36174 8.48078C8.25628 8.44165 8.15422 8.39573 8.05556 8.3447C7.77149 8.21882 7.45001 8.20011 7.15403 8.29367C7.00265 8.3532 6.85976 8.43315 6.72879 8.53181C6.66075 8.58284 6.59271 8.65088 6.52467 8.70191C6.45833 8.75974 6.39539 8.82268 6.33756 8.88901L6.26952 8.97406C6.13344 9.12035 5.90551 9.12715 5.75922 8.99107C5.75242 8.98597 5.74731 8.97917 5.74221 8.97406C5.63165 8.8686 5.59763 8.70701 5.65716 8.56583Z" fill="#422B0D"/>
<path d="M17.1389 6.88186C17.0028 6.69475 16.9178 6.52465 16.8157 6.37156C16.7409 6.23718 16.6439 6.11471 16.5266 6.01435C16.4755 5.98033 16.4415 5.94631 16.4075 5.9293C16.3718 5.90719 16.331 5.89698 16.2884 5.89528C16.1677 5.88167 16.0435 5.89868 15.9312 5.94631C15.7747 6.00074 15.6216 6.06198 15.472 6.13342C15.3189 6.21847 15.1658 6.30352 14.9957 6.40558C14.6895 6.6097 14.3663 6.83083 14.0431 7.05196C13.8696 7.16762 13.6349 7.1217 13.5158 6.9499C13.4138 6.80871 13.4291 6.6148 13.5498 6.49063C13.8203 6.17765 14.1231 5.89188 14.4514 5.64013C14.8052 5.35947 15.2015 5.13494 15.625 4.97675C15.8887 4.8917 16.1677 4.86958 16.4415 4.90871C16.598 4.93932 16.7477 4.99716 16.8838 5.07881C17.0148 5.15195 17.1304 5.25061 17.224 5.36797C17.3856 5.55338 17.5131 5.76601 17.5982 5.99734C17.6832 6.20146 17.7513 6.38857 17.8023 6.54166V6.55867C17.8738 6.75938 17.7683 6.98051 17.5659 7.05196H17.5642C17.4009 7.08257 17.2359 7.01623 17.1389 6.88186Z" fill="#422B0D"/>
<path d="M8.47578 9.47415C7.76307 9.47415 7.11499 10.0763 7.11499 11.0765C7.11499 12.0767 7.76307 12.6771 8.47578 12.6771C9.1885 12.6771 9.83658 12.075 9.83658 11.0765C9.83658 10.078 9.1885 9.47415 8.47578 9.47415Z" fill="#422B0D"/>
<path d="M8.40934 10.1426C8.1678 10.027 7.87693 10.129 7.75957 10.3706C7.66941 10.5594 7.71024 10.7856 7.86163 10.9319C8.10317 11.0476 8.39404 10.9455 8.5114 10.704C8.60156 10.5152 8.56073 10.2889 8.40934 10.1426Z" fill="#896024"/>
<path d="M15.125 9.32277C14.8851 9.30746 14.6793 9.48947 14.664 9.7276V9.75312C14.6113 9.98786 14.7592 10.2209 14.994 10.2736C15.0008 10.2753 15.0076 10.277 15.0144 10.277C15.2559 10.2906 15.4617 10.1052 15.4754 9.86368C15.4754 9.85858 15.4754 9.85178 15.4754 9.84667C15.5281 9.61194 15.3801 9.3789 15.1454 9.32617C15.1386 9.32447 15.1318 9.32447 15.125 9.32277Z" fill="#896024"/>
<defs>
<radialGradient id="paint0_radial_80_6943" cx="0" cy="0" r="1" gradientUnits="userSpaceOnUse" gradientTransform="translate(11.8658 11.5085) scale(9.6888)">
<stop offset="0.5" stop-color="#FDE030"/>
<stop offset="0.92" stop-color="#F7C02B"/>
<stop offset="1" stop-color="#F4A223"/>
</radialGradient>
</defs>
</svg>
