<svg width="22" height="21" viewBox="0 0 22 21" fill="none" xmlns="http://www.w3.org/2000/svg">
<path d="M10.6506 20.53C5.5273 20.53 0 17.3164 0 10.265C0 3.21355 5.5273 0 10.6506 0C13.4969 0 16.1228 0.93652 18.0693 2.64429C20.1811 4.51733 21.3012 7.16162 21.3012 10.265C21.3012 13.3684 20.1811 15.9943 18.0693 17.8673C16.1228 19.5751 13.4785 20.53 10.6506 20.53Z" fill="url(#paint0_radial_305_7973)"/>
<path d="M19.4448 4.16292C20.4235 5.74215 20.934 7.62254 20.934 9.7141C20.934 12.8175 19.8139 15.4434 17.7021 17.3164C15.7556 19.0242 13.1113 19.9791 10.2834 19.9791C6.96701 19.9791 3.48903 18.6294 1.43604 15.7666C3.41191 19.0095 7.12861 20.53 10.6507 20.53C13.4786 20.53 16.1229 19.5751 18.0694 17.8673C20.1811 15.9943 21.3013 13.3684 21.3013 10.265C21.3013 7.92553 20.6641 5.84682 19.4448 4.16292Z" fill="#EB8F00"/>
<path d="M10.7241 13.2949C12.7073 13.2949 14.1029 14.3232 14.5252 14.966C14.6868 15.1698 14.7217 15.4452 14.617 15.6821C14.5362 15.8309 14.382 15.9227 14.2131 15.9208C14.1506 15.9172 14.0882 15.9043 14.0294 15.8841C12.9552 15.5774 11.8424 15.4232 10.7241 15.425C9.61125 15.4177 8.50212 15.5793 7.43706 15.9025C7.3783 15.9227 7.31586 15.9355 7.25343 15.9392C7.08449 15.9447 6.92656 15.8529 6.84944 15.7005C6.74293 15.4636 6.77966 15.1863 6.94126 14.9843C7.34524 14.3232 8.75921 13.2949 10.7241 13.2949Z" fill="#422B0D"/>
<path d="M5.76581 17.9041C4.57221 17.9041 3.65405 16.7472 3.65405 15.7556C3.65405 15.0578 3.96623 14.2498 4.40694 13.1296C4.46203 12.9644 4.53548 12.7991 4.60894 12.6155C4.86602 11.9507 5.15983 11.3007 5.49037 10.669C5.55647 10.5423 5.70705 10.4872 5.83927 10.5404C5.89436 10.568 5.94026 10.6139 5.96781 10.669C6.24325 11.2382 6.55543 11.936 6.8676 12.6522C7.63885 14.3783 7.85921 15.0761 7.85921 15.7739C7.87757 16.7472 6.94105 17.9041 5.76581 17.9041Z" fill="url(#paint1_radial_305_7973)"/>
<path d="M7.0516 16.5801C6.78166 16.9969 6.17017 16.918 6.17017 16.2257C6.17017 15.7831 6.26014 13.5098 6.64026 13.8274C7.26461 14.3453 7.44089 15.9906 7.0516 16.5801Z" fill="#81D4FA"/>
<path d="M4.48069 7.29017C4.25115 7.62989 3.70576 7.41137 3.86552 7.00003C4.24196 6.10575 4.94527 5.38958 5.83405 5.00029C6.15908 4.84604 6.50981 4.74871 6.86789 4.71015C7.04969 4.67342 7.22781 4.79095 7.26454 4.97274C7.30126 5.15454 7.18374 5.33266 7.00011 5.36939H6.97624C5.95157 5.7091 5.07198 6.3867 4.48069 7.29017Z" fill="#422B0D"/>
<path d="M16.8375 7.29017C17.067 7.62989 17.6124 7.41137 17.4526 7.00004C17.0743 6.10391 16.3674 5.38775 15.4749 5.00029C15.1499 4.84604 14.8028 4.74872 14.4447 4.71015C14.2629 4.67343 14.0848 4.79095 14.0499 4.97275C14.0132 5.15454 14.1307 5.33266 14.3125 5.36939H14.3364C15.3629 5.70727 16.2462 6.38487 16.8375 7.29017Z" fill="#422B0D"/>
<path d="M7.17462 7.33424C6.4052 7.33424 5.70557 7.9843 5.70557 9.06405C5.70557 10.1438 6.4052 10.792 7.17462 10.792C7.94403 10.792 8.64367 10.142 8.64367 9.06405C8.64367 7.98613 7.94403 7.33424 7.17462 7.33424Z" fill="#422B0D"/>
<path d="M7.10275 8.05591C6.84199 7.93104 6.52798 8.04122 6.40128 8.30198C6.30395 8.50581 6.34802 8.75004 6.51146 8.90796C6.77221 9.03283 7.08622 8.92265 7.21293 8.66189C7.31025 8.45806 7.26618 8.21383 7.10275 8.05591Z" fill="#896024"/>
<path d="M14.2132 7.33423C13.4438 7.33423 12.7441 7.98429 12.7441 9.06404C12.7441 10.1438 13.4438 10.792 14.2132 10.792C14.9826 10.792 15.6822 10.142 15.6822 9.06404C15.6822 7.98612 14.9863 7.33423 14.2132 7.33423Z" fill="#422B0D"/>
<path d="M14.1452 8.05591C13.8845 7.93104 13.5705 8.04122 13.4438 8.30198C13.3464 8.50581 13.3905 8.75004 13.5539 8.90796C13.8147 9.03283 14.1287 8.92265 14.2554 8.66189C14.3527 8.45806 14.3087 8.21383 14.1452 8.05591Z" fill="#896024"/>
<defs>
<radialGradient id="paint0_radial_305_7973" cx="0" cy="0" r="1" gradientUnits="userSpaceOnUse" gradientTransform="translate(10.6506 10.265) scale(10.4596)">
<stop offset="0.5" stop-color="#FDE030"/>
<stop offset="0.92" stop-color="#F7C02B"/>
<stop offset="1" stop-color="#F4A223"/>
</radialGradient>
<radialGradient id="paint1_radial_305_7973" cx="0" cy="0" r="1" gradientUnits="userSpaceOnUse" gradientTransform="translate(5.91639 11.4573) scale(4.85154 7.47137)">
<stop offset="0.46" stop-color="#29B6F6"/>
<stop offset="1" stop-color="#1E88E5"/>
</radialGradient>
</defs>
</svg>
