<svg width="21" height="20" viewBox="0 0 21 20" fill="none" xmlns="http://www.w3.org/2000/svg">
<path d="M10.6765 19.0171C5.93078 19.0171 0.810791 16.0404 0.810791 9.50854C0.810791 2.97674 5.93078 0 10.6765 0C13.3131 0 15.7455 0.867506 17.5486 2.44943C19.5047 4.18444 20.5423 6.63387 20.5423 9.50854C20.5423 12.3832 19.5047 14.8156 17.5486 16.5507C15.7455 18.1326 13.2961 19.0171 10.6765 19.0171Z" fill="url(#paint0_radial_80_6923)"/>
<path d="M18.8225 3.85614C19.7291 5.31899 20.202 7.06081 20.202 8.99824C20.202 11.8729 19.1644 14.3053 17.2083 16.0403C15.4052 17.6223 12.9558 18.5068 10.3362 18.5068C7.26426 18.5068 4.04258 17.2566 2.14087 14.6047C3.97114 17.6087 7.41394 19.0171 10.6764 19.0171C13.296 19.0171 15.7454 18.1326 17.5485 16.5506C19.5046 14.8156 20.5422 12.3832 20.5422 9.50854C20.5422 7.34147 19.952 5.41595 18.8225 3.85614Z" fill="#D84213"/>
<path d="M14.1364 16.3533C14.0786 16.3312 14.0258 16.2955 13.985 16.2479C12.33 14.5282 9.59306 14.4754 7.87335 16.1305C7.83423 16.1696 7.79341 16.2088 7.75599 16.2479C7.71516 16.2955 7.66243 16.3312 7.6046 16.3533C7.47702 16.401 7.33244 16.3738 7.23038 16.2836C7.13002 16.1951 7.096 16.054 7.14703 15.9298C7.65393 14.6285 9.161 13.6079 10.8705 13.6079C12.58 13.6079 14.0871 14.6285 14.594 15.9281C14.645 16.0523 14.611 16.1934 14.5106 16.2819C14.4086 16.3721 14.264 16.3993 14.1364 16.3533Z" fill="#422B0D"/>
<path d="M9.7479 10.5155C9.36687 10.0359 7.79686 9.11393 7.23043 8.84517C7.0195 8.74821 6.80008 8.66997 6.57555 8.61213C6.53472 8.60023 6.4905 8.59512 6.44797 8.59512C6.22174 8.60023 6.02783 8.76182 5.9819 8.98465C5.92917 9.21599 6.04824 9.45412 6.26596 9.54938C6.53302 9.68036 6.99909 9.9287 7.48217 10.2026C7.07904 10.4424 6.8324 10.8779 6.8324 11.3473V11.5957C6.8324 12.2999 7.40393 12.8714 8.10814 12.8714C8.81235 12.8714 9.38388 12.2999 9.38388 11.5957V11.3473C9.38388 11.3371 9.38388 11.3286 9.38388 11.3184C9.56589 11.3065 9.72918 11.1976 9.80913 11.0343C9.89248 10.8642 9.86867 10.6618 9.7479 10.5155Z" fill="#422B0D"/>
<path d="M15.766 8.98467C15.7183 8.76014 15.521 8.60024 15.2914 8.59854C15.2489 8.59854 15.2046 8.60364 15.1638 8.61555C14.9393 8.67168 14.7198 8.74993 14.5089 8.84519C13.9425 9.11054 12.3725 10.0359 11.9915 10.5122C11.8707 10.6601 11.8503 10.8643 11.9353 11.0344C12.017 11.1994 12.1786 11.3065 12.3623 11.3184V11.3473V11.5957C12.3623 12.2999 12.9338 12.8714 13.638 12.8714C14.3422 12.8714 14.9138 12.2999 14.9138 11.5957V11.3473C14.9138 10.8796 14.6671 10.4458 14.2657 10.206C14.7488 9.93212 15.2148 9.68377 15.4819 9.5528C15.7013 9.45754 15.8221 9.2177 15.766 8.98467Z" fill="#422B0D"/>
<path d="M8.04338 10.4526C7.80184 10.3369 7.51097 10.439 7.3936 10.6805C7.30345 10.8694 7.34427 11.0956 7.49566 11.2419C7.7372 11.3575 8.02807 11.2555 8.14544 11.0139C8.23559 10.8251 8.19477 10.5989 8.04338 10.4526Z" fill="#896024"/>
<path d="M13.5732 10.4526C13.3316 10.3369 13.0408 10.439 12.9234 10.6805C12.8332 10.8694 12.8741 11.0956 13.0254 11.2419C13.267 11.3575 13.5579 11.2555 13.6752 11.0139C13.7654 10.8251 13.7246 10.5989 13.5732 10.4526Z" fill="#896024"/>
<defs>
<radialGradient id="paint0_radial_80_6923" cx="0" cy="0" r="1" gradientUnits="userSpaceOnUse" gradientTransform="translate(10.6765 9.50853) scale(9.6888)">
<stop offset="0.12" stop-color="#FAC742"/>
<stop offset="0.32" stop-color="#FAC440"/>
<stop offset="0.48" stop-color="#FBBA3B"/>
<stop offset="0.62" stop-color="#FBA931"/>
<stop offset="0.76" stop-color="#FC9224"/>
<stop offset="0.88" stop-color="#FE7413"/>
<stop offset="1" stop-color="#FF5100"/>
</radialGradient>
</defs>
</svg>
