<svg width="22" height="21" viewBox="0 0 22 21" fill="none" xmlns="http://www.w3.org/2000/svg">
<path d="M3.34968 13.9298C3.34169 13.9234 3.33371 13.917 3.32572 13.9123C3.27461 13.8819 3.24426 13.8356 3.23308 13.7813C3.22349 13.727 3.23627 13.6695 3.26981 13.6152C3.64038 13.4395 6.36852 12.1377 7.04257 11.5259C7.21668 11.3678 7.29973 10.9685 7.45467 10.1555C7.48981 9.97018 7.52814 9.77212 7.56967 9.56288C7.60961 9.36961 7.71503 9.01182 7.82524 8.63326C7.97698 8.11735 8.13351 7.58545 8.18622 7.27079C8.62387 4.62411 8.98805 1.34331 8.99125 1.31136C9.05035 0.741138 9.17493 0.161327 9.63814 0.161327C10.1844 0.161327 10.5662 0.504741 10.5662 0.998298L10.5997 13.6215C10.5997 14.5256 10.2563 14.6566 9.85857 14.8083C9.63495 14.893 9.38258 14.9904 9.20368 15.2284C8.83791 15.7172 8.44658 16.3657 8.06802 16.9934C7.9067 17.2601 7.74218 17.5349 7.58085 17.792L3.34968 13.9298Z" fill="url(#paint0_linear_305_7989)"/>
<path d="M9.63952 0.319455C10.0995 0.319455 10.4078 0.590991 10.4078 0.996699L10.4414 13.6184C10.4414 14.4122 10.1874 14.5096 9.80244 14.6566C9.55966 14.7492 9.28333 14.8546 9.07728 15.131C8.70671 15.6261 8.31378 16.2778 7.93363 16.9103C7.80585 17.1212 7.67647 17.3368 7.54869 17.5445L3.45967 13.8132C3.44529 13.8004 3.42932 13.7877 3.41175 13.7765C3.39738 13.7685 3.39418 13.7605 3.39418 13.7525C3.39258 13.7477 3.39258 13.7413 3.39418 13.735C3.92128 13.4842 6.4897 12.2479 7.15257 11.6457C7.365 11.4525 7.44806 11.0595 7.61418 10.1874C7.64932 10.0037 7.68765 9.80406 7.72918 9.59642C7.76752 9.40954 7.87134 9.05494 7.98155 8.68118C8.13489 8.16047 8.29302 7.62219 8.34573 7.29794C8.78338 4.64647 9.14756 1.36247 9.15235 1.32733C9.22583 0.619742 9.37118 0.319455 9.63952 0.319455ZM9.63952 0C9.0054 0 8.8888 0.777872 8.83449 1.29219C8.83449 1.29219 8.47191 4.5698 8.03107 7.24364C7.94162 7.78511 7.50876 9.07092 7.41611 9.53093C7.21965 10.4957 7.11902 11.2416 6.93693 11.4077C6.23892 12.0418 3.16577 13.4874 3.16577 13.4874C3.01563 13.6775 3.04917 13.9282 3.24244 14.0464L7.61418 18.0364C8.17322 17.1579 8.78178 16.0558 9.33125 15.321C9.7705 14.7333 10.7592 15.1613 10.7592 13.6184L10.7257 0.996699C10.7257 0.447237 10.3136 0 9.63952 0Z" fill="#E6B77E"/>
<path d="M8.06463 20.2183L0 20.1288L0.0894473 13.9282L5.15919 11.6521C5.39719 11.5467 5.67351 11.6793 5.73741 11.9316C5.88915 12.5242 6.24214 13.5752 7.01522 14.6294C7.74358 15.6229 8.52944 16.3896 9.01821 16.8273C9.29932 17.0796 9.37919 17.4869 9.21148 17.8256L7.26919 19.319L8.06463 20.2183Z" fill="url(#paint1_linear_305_7989)"/>
<path d="M8.86816 2.2234C8.86816 2.2234 8.99914 1.39761 9.74986 1.39761C10.5006 1.39761 10.5517 2.2234 10.5517 2.2234" stroke="#E6B77E" stroke-width="0.88891" stroke-miterlimit="10" stroke-linecap="round" stroke-linejoin="round"/>
<path d="M8.63013 4.29986C8.63013 4.29986 8.79465 3.3974 9.59009 3.3974C10.3855 3.3974 10.5676 4.29986 10.5676 4.29986" stroke="#E6B77E" stroke-width="0.88891" stroke-miterlimit="10" stroke-linecap="round" stroke-linejoin="round"/>
<path opacity="0.2" d="M5.29188 12.1185C5.4516 12.7175 5.82696 13.818 6.6288 14.9121C7.36993 15.9216 8.16378 16.7043 8.69886 17.1835C8.7947 17.2697 8.83623 17.4007 8.81227 17.5237L6.98818 18.8542C6.88117 18.9325 6.81248 19.0491 6.79491 19.1801C6.77734 19.311 6.81568 19.442 6.89873 19.5442L7.04888 19.7279L0.488877 19.6544L0.567144 14.2413L5.29188 12.1185ZM5.33181 11.6154C5.27431 11.6154 5.21681 11.6266 5.1609 11.6521L0.0911563 13.9282L0.00170898 20.1288L8.06634 20.2183L7.2693 19.2408L9.21159 17.8256C9.3793 17.4869 9.30103 17.078 9.01832 16.8273C8.52955 16.3896 7.74529 15.6245 7.01534 14.6294C6.24226 13.5768 5.88926 12.5258 5.73752 11.9316C5.6896 11.7384 5.5155 11.6154 5.33181 11.6154Z" fill="#424242"/>
<path d="M13.7222 17.7904C13.5625 17.5333 13.3964 17.2585 13.235 16.9918C12.8565 16.3641 12.4652 15.714 12.0994 15.2268C11.9205 14.9888 11.6681 14.8914 11.4445 14.8067C11.0468 14.655 10.7034 14.524 10.7034 13.62L10.7369 0.998299C10.7369 0.504741 11.1187 0.161327 11.6649 0.161327C12.1281 0.161327 12.2511 0.742735 12.3118 1.31136C12.315 1.34491 12.6792 4.62571 13.1168 7.27239C13.168 7.58705 13.3261 8.12054 13.4778 8.63486C13.5896 9.01342 13.6951 9.37121 13.7334 9.56448C13.7765 9.77372 13.8149 9.97338 13.85 10.1587C14.0049 10.9717 14.088 11.3694 14.2621 11.5275C14.9345 12.1393 17.6643 13.4411 18.0349 13.6168C18.0684 13.6695 18.0812 13.727 18.0716 13.7813C18.062 13.8356 18.0301 13.8819 17.9789 13.9123C17.971 13.917 17.963 13.9234 17.955 13.9298L13.7222 17.7904Z" fill="url(#paint2_linear_305_7989)"/>
<path d="M11.6633 0.319455C11.9316 0.319455 12.077 0.621339 12.152 1.32733C12.1552 1.36088 12.521 4.64487 12.9587 7.29635C13.013 7.62059 13.1711 8.15887 13.3228 8.67958C13.4331 9.05494 13.5369 9.40794 13.5752 9.59482C13.6183 9.80406 13.6551 10.0021 13.6902 10.1858C13.8563 11.0579 13.9394 11.4509 14.1518 11.6441C14.8147 12.2479 17.3831 13.4826 17.9102 13.7334C17.9118 13.7397 17.9118 13.7461 17.9102 13.7509C17.9086 13.7573 17.9054 13.7653 17.8926 13.7749C17.8751 13.7861 17.8591 13.7972 17.8447 13.8116L13.7557 17.5429C13.6279 17.3352 13.4985 17.1196 13.3708 16.9087C12.9906 16.2778 12.5961 15.6245 12.2271 15.1294C12.0211 14.8546 11.7447 14.7492 11.502 14.6566C11.117 14.5096 10.863 14.4122 10.863 13.62L10.8966 0.996699C10.895 0.590991 11.2049 0.319455 11.6633 0.319455ZM11.6633 0C10.9892 0 10.5755 0.447237 10.5755 0.996699L10.542 13.6184C10.542 15.1613 11.5307 14.7333 11.97 15.321C12.5194 16.0558 13.128 17.1579 13.687 18.0364L18.0588 14.048C18.252 13.9298 18.2872 13.679 18.1354 13.489C18.1354 13.489 15.0623 12.0434 14.3643 11.4093C14.1822 11.2432 14.0815 10.4973 13.8851 9.53253C13.7924 9.07251 13.3596 7.78671 13.2701 7.24523C12.8293 4.5714 12.4667 1.29379 12.4667 1.29379C12.4156 0.777872 12.2974 0 11.6633 0Z" fill="#E6B77E"/>
<path d="M13.2366 20.2183L21.3013 20.1288L21.2118 13.9282L16.1421 11.6521C15.9041 11.5467 15.6277 11.6793 15.5639 11.9316C15.4121 12.5242 15.0591 13.5752 14.286 14.6294C13.5577 15.6229 12.7718 16.3896 12.2831 16.8273C12.0019 17.0796 11.9221 17.4869 12.0898 17.8256L14.0321 19.319L13.2366 20.2183Z" fill="url(#paint3_linear_305_7989)"/>
<path d="M12.4347 2.2234C12.4347 2.2234 12.3038 1.39761 11.5531 1.39761C10.8023 1.39761 10.7512 2.2234 10.7512 2.2234" stroke="#E6B77E" stroke-width="0.88891" stroke-miterlimit="10" stroke-linecap="round" stroke-linejoin="round"/>
<path d="M12.6728 4.29986C12.6728 4.29986 12.5083 3.3974 11.7129 3.3974C10.9158 3.3974 10.7354 4.29986 10.7354 4.29986" stroke="#E6B77E" stroke-width="0.88891" stroke-miterlimit="10" stroke-linecap="round" stroke-linejoin="round"/>
<path opacity="0.2" d="M16.0111 12.1185L20.7374 14.2397L20.8157 19.6529L14.2557 19.7263L14.4058 19.5426C14.4889 19.4404 14.5272 19.3094 14.5097 19.1785C14.4921 19.0475 14.4234 18.9309 14.3164 18.8526L12.4923 17.5221C12.4683 17.3991 12.5083 17.2681 12.6057 17.1819C13.1408 16.7027 13.9346 15.92 14.6758 14.9105C15.476 13.818 15.8514 12.7175 16.0111 12.1185ZM15.9712 11.6154C15.7859 11.6154 15.6134 11.7384 15.5639 11.9316C15.4121 12.5242 15.0591 13.5752 14.286 14.6294C13.5577 15.6229 12.7718 16.3896 12.2831 16.8273C12.0019 17.0796 11.9221 17.4869 12.0898 17.8256L14.0321 19.2408L13.235 20.2183L21.2997 20.1288L21.2102 13.9282L16.1421 11.6521C16.0862 11.6266 16.0287 11.6154 15.9712 11.6154Z" fill="#424242"/>
<defs>
<linearGradient id="paint0_linear_305_7989" x1="6.91557" y1="17.7904" x2="6.91557" y2="0.159586" gradientUnits="userSpaceOnUse">
<stop stop-color="#EDC391"/>
<stop offset="1" stop-color="#F9DDBD"/>
</linearGradient>
<linearGradient id="paint1_linear_305_7989" x1="0.00108615" y1="15.9168" x2="9.29805" y2="15.9168" gradientUnits="userSpaceOnUse">
<stop stop-color="#2196F3"/>
<stop offset="1" stop-color="#64B5F6"/>
</linearGradient>
<linearGradient id="paint2_linear_305_7989" x1="14.3937" y1="17.7904" x2="14.3937" y2="0.159586" gradientUnits="userSpaceOnUse">
<stop stop-color="#EDC391"/>
<stop offset="1" stop-color="#F9DDBD"/>
</linearGradient>
<linearGradient id="paint3_linear_305_7989" x1="21.3013" y1="15.9168" x2="12.0051" y2="15.9168" gradientUnits="userSpaceOnUse">
<stop stop-color="#2196F3"/>
<stop offset="1" stop-color="#64B5F6"/>
</linearGradient>
</defs>
</svg>
