<svg width="19" height="20" viewBox="0 0 19 20" fill="none" xmlns="http://www.w3.org/2000/svg">
<path d="M17.9787 11.357C17.7438 10.8502 17.3481 10.4352 16.8525 10.1777C16.5533 9.99112 16.2283 9.84793 15.8873 9.75462C16.1334 8.85368 15.7843 8.13615 15.2936 7.60042C14.568 6.81531 13.8135 6.70109 13.8135 6.70109C14.0741 6.20718 14.1529 5.63766 14.0323 5.09227C13.9084 4.49862 13.5368 3.98862 13.0091 3.68938C12.5103 3.39497 11.8958 3.25017 11.2651 3.13112C10.9627 3.07642 9.68687 2.89784 9.15757 2.16583C8.73123 1.57218 8.71836 0.503923 8.60253 0.183769C8.48669 -0.136386 8.05875 -0.00124513 7.60023 0.306039C7.0645 0.669632 5.95441 1.81672 5.52647 2.97024C5.24332 3.67973 5.17253 4.45518 5.32054 5.20489C4.97625 5.2612 4.64001 5.36094 4.32147 5.50252C4.29572 5.50252 4.26998 5.51861 4.24263 5.52987C3.75999 5.72936 2.72552 6.65604 2.63382 8.07984C2.60003 8.5834 2.66438 9.08696 2.82205 9.56639C2.46972 9.65809 2.13026 9.79645 1.81493 9.97986C1.44651 10.1375 1.11027 10.3628 0.825506 10.6443C0.511787 11.032 0.283335 11.4809 0.157847 11.9635C-0.133349 13.027 -0.019123 14.1612 0.47961 15.1442C0.769197 15.7024 1.13279 16.2172 1.56395 16.6758C2.93949 18.0899 5.31411 18.624 7.19481 18.9281C9.47772 19.3046 11.8684 19.1726 14.0049 18.2846C17.2097 16.9621 18.0624 14.8353 18.1879 14.2352C18.4662 12.9079 18.1251 11.6579 17.9787 11.357Z" fill="#885742"/>
<path d="M12.9206 14.2143C12.668 14.343 12.4106 14.4588 12.1516 14.5618C11.9778 14.6309 11.8025 14.6937 11.6255 14.75C11.4485 14.8079 11.2699 14.8578 11.0898 14.9109C10.7294 15.001 10.3626 15.0669 9.99254 15.1055C9.71261 15.1361 9.42946 15.1506 9.14791 15.1506C8.40464 15.1506 7.66458 15.046 6.94866 14.8433L6.71377 14.7725C6.31961 14.647 5.93511 14.4942 5.56347 14.3156L5.33984 14.2046C5.60691 15.297 6.36144 16.2044 7.38626 16.6677C7.93808 16.9235 8.53978 17.0538 9.14791 17.0506C9.76248 17.0554 10.3706 16.9299 10.9321 16.679C11.9666 16.2237 12.7195 15.3002 12.956 14.195L12.9206 14.2143Z" fill="#35220B"/>
<path d="M12.5569 13.7493C11.4307 13.9472 10.2901 14.0421 9.14783 14.0341C8.00557 14.0405 6.86492 13.9456 5.73875 13.7493C5.55052 13.7123 5.36872 13.8362 5.33172 14.0244C5.32367 14.0679 5.32367 14.1145 5.33172 14.158V14.1982C6.50937 14.8144 7.81895 15.1377 9.14783 15.1426C9.42937 15.1426 9.71253 15.1281 9.99246 15.0975C10.3625 15.0589 10.7293 14.9929 11.0897 14.9028C11.2699 14.8578 11.4484 14.8079 11.6254 14.742C11.8024 14.676 11.9777 14.6229 12.1515 14.5537C12.4121 14.4459 12.6679 14.3301 12.9205 14.2062L12.9559 14.1869L12.9656 14.1435C12.9929 13.952 12.8594 13.7751 12.6663 13.7477C12.6309 13.7429 12.5939 13.7429 12.5569 13.7493Z" fill="white"/>
<path d="M11.743 12.4446C12.8448 12.4446 13.7379 11.5514 13.7379 10.4496C13.7379 9.34786 12.8448 8.4547 11.743 8.4547C10.6412 8.4547 9.74805 9.34786 9.74805 10.4496C9.74805 11.5514 10.6412 12.4446 11.743 12.4446Z" fill="white"/>
<path d="M11.7429 11.386C12.252 11.386 12.6647 10.9668 12.6647 10.4496C12.6647 9.93251 12.252 9.5133 11.7429 9.5133C11.2338 9.5133 10.821 9.93251 10.821 10.4496C10.821 10.9668 11.2338 11.386 11.7429 11.386Z" fill="#35220B"/>
<path d="M6.55304 12.4446C7.65481 12.4446 8.54797 11.5514 8.54797 10.4496C8.54797 9.34786 7.65481 8.4547 6.55304 8.4547C5.45127 8.4547 4.55811 9.34786 4.55811 10.4496C4.55811 11.5514 5.45127 12.4446 6.55304 12.4446Z" fill="white"/>
<path d="M6.55296 11.386C7.06208 11.386 7.47481 10.9668 7.47481 10.4496C7.47481 9.93251 7.06208 9.5133 6.55296 9.5133C6.04383 9.5133 5.6311 9.93251 5.6311 10.4496C5.6311 10.9668 6.04383 11.386 6.55296 11.386Z" fill="#35220B"/>
</svg>
