<svg width="69" height="69" viewBox="0 0 69 69" fill="none" xmlns="http://www.w3.org/2000/svg">
<path d="M51.8457 24.9475C51.8457 17.5431 44.5229 11.5014 35.3271 11.1564V8.87994C36.046 8.56151 36.5489 7.84455 36.5489 7.00748C36.5489 5.87549 35.6309 4.95789 34.4993 4.95789C33.3677 4.95789 32.4497 5.87583 32.4497 7.00748C32.4497 7.84419 32.9525 8.56156 33.6715 8.87994V11.1564C24.574 11.4971 17.3135 17.416 17.1598 24.7129H17.1594V24.7356C17.1582 24.8064 17.1528 24.8765 17.1528 24.9478C17.1528 25.019 17.1582 25.0891 17.1594 25.1599C17.1594 25.1599 17.1913 25.7502 17.2302 26.2127C17.1848 26.6146 17.1528 27.0197 17.1528 27.4313C17.1528 35.0571 24.9196 41.2392 34.4994 41.2392C37.7919 41.2392 40.8712 40.5087 43.4937 39.2404L51.8376 50.242V44.9184L51.8372 27.6989C51.8395 27.6096 51.8456 27.5206 51.8456 27.4305C51.8456 27.3678 51.8383 27.3062 51.8372 27.2438V26.5653C51.8372 26.5657 51.8453 25.4811 51.8453 24.9474L51.8457 24.9475ZM34.4991 37.0994C27.2068 37.0994 20.771 33.098 19.185 27.5807C19.0706 27.131 18.9351 26.5558 18.9112 26.3983C18.8862 26.2304 18.8404 25.5947 18.8134 25.0945C18.8123 25.0617 18.8111 25.0294 18.8096 24.9967V24.9955L18.8146 24.7483C18.9532 18.1579 25.9887 12.7965 34.4983 12.7965C43.1502 12.7965 50.1889 18.2476 50.1889 24.9484C50.1889 25.4778 50.1804 26.5525 50.1804 26.5664V39.9947L46.3354 34.9252L45.4324 33.7347L44.1556 34.5109C41.3706 36.2044 38.0311 37.0996 34.4991 37.0996L34.4991 37.0994Z" fill="#6CC3C5"/>
<path d="M30.1155 21.5773C30.1155 22.7093 29.198 23.6269 28.066 23.6269C26.9344 23.6269 26.0164 22.7093 26.0164 21.5773C26.0164 20.4453 26.9343 19.5277 28.066 19.5277C29.1979 19.5277 30.1155 20.4453 30.1155 21.5773Z" fill="#6CC3C5"/>
<path d="M41.7923 21.5773C41.7923 22.7093 40.8747 23.6269 39.7427 23.6269C38.6111 23.6269 37.6931 22.7093 37.6931 21.5773C37.6931 20.4453 38.6111 19.5277 39.7427 19.5277C40.8747 19.5277 41.7923 20.4453 41.7923 21.5773Z" fill="#6CC3C5"/>
<path d="M42.5099 26.0702C42.0806 25.9096 41.6039 26.1272 41.4441 26.555C40.5582 28.9191 37.4789 30.5702 33.957 30.5702C30.4353 30.5702 27.3565 28.9199 26.4702 26.5561C26.3096 26.1279 25.8325 25.9103 25.4044 26.0721C24.9766 26.2326 24.7598 26.7097 24.9204 27.1378C26.0436 30.1335 29.7605 32.2262 33.9578 32.2262C38.1564 32.2262 41.8728 30.1331 42.9956 27.1362C43.1554 26.7077 42.9379 26.231 42.5101 26.0701L42.5099 26.0702Z" fill="#6CC3C5"/>
<path d="M13.737 22.77C12.605 22.77 11.6874 23.688 11.6874 24.8196C11.6874 25.9516 12.6053 26.8692 13.737 26.8692C14.8686 26.8692 15.7866 25.9513 15.7866 24.8196C15.7866 23.6876 14.869 22.77 13.737 22.77Z" fill="#6CC3C5"/>
<path d="M55.2631 22.77C54.1311 22.77 53.2135 23.688 53.2135 24.8196C53.2135 25.9516 54.1315 26.8692 55.2631 26.8692C56.3947 26.8692 57.3127 25.9513 57.3127 24.8196C57.3127 23.6876 56.3951 22.77 55.2631 22.77Z" fill="#6CC3C5"/>
</svg>
